<?xml version="1.0" encoding="UTF-8"?>
<svg width="5120pt" height="1008pt" version="1.0" viewBox="0 0 5120 1008" xmlns="http://www.w3.org/2000/svg" xmlns:xlink="http://www.w3.org/1999/xlink">
 <metadata>Created by potrace 1.13, written by Peter Selinger 2001-2015</metadata>
 <g transform="translate(0 1008) scale(.1 -.1)">
  <path d="m1486 9966c-75-105-218-306-680-959-108-153-193-283-190-289 5-8 91-9 288-6 155 3 287 4 294 1 10-4 12-389 12-1931 0-2092 0-2110 60-2438 118-651 383-1221 817-1759 93-115 274-302 403-415 47-41 87-77 90-80s25-21 50-40 52-40 60-47 39-31 68-53c28-23 50-45 47-50-4-7-1435-2-1444 6-2 2-3 134-2 293s-2 292-7 295c-4 3-87-50-183-118-96-67-320-225-499-351s-398-280-486-342c-89-62-166-119-172-126-11-13-38 7 843-615 253-179 467-331 476-338 9-8 19-11 22-7 4 3 7 138 7 299v292l43 5c83 11 2754 8 3256-4 539-13 661-8 946 32 966 138 1842 642 2449 1409 37 47 74 93 82 103 8 9 14 21 14 26 0 4 9 16 20 26 16 14 21 15 25 4 3-8 4-333 3-724l-3-710-291 4c-160 2-296 1-302-3-10-6 107-176 628-916 256-364 311-440 318-440 4 1 23 24 42 53 46 66 739 1048 837 1185 41 56 71 107 67 113-5 8-90 10-288 8-154-2-287 0-294 4-10 7-12 386-12 1925 0 1197-3 1962-9 2037-69 818-365 1544-886 2170-117 141-344 365-495 489-128 105-124 102-170 132-22 15-40 32-40 39 0 9 161 11 703 8 386-3 708-6 715-9 11-3 13-56 12-272-2-320-3-312 11-312 6 0 122 78 257 174 321 225 827 580 970 680 61 43 112 84 112 92 0 7-222 168-493 357-270 190-572 402-671 471-98 69-183 126-189 126-7 0-9-97-6-297l4-298-1915-1c-1053-1-1967-4-2030-8-350-18-783-116-1140-258-353-140-696-342-1e3 -587-129-104-430-403-534-531-95-117-96-117-126-160-42-60-59-75-65-59-3 8-4 336-3 729l3 715h295c188 0 296 4 298 10 2 9-377 554-783 1126l-160 226-79-111zm3880-1861c409-44 742-142 1099-324 284-145 535-329 771-565 164-164 269-292 397-483 90-136 242-421 286-538 161-426 222-743 223-1160 0-342-32-570-124-885-139-476-389-903-740-1265-494-510-1091-814-1809-922-145-22-644-25-789-5-432 59-823 189-1151 383-27 16-52 29-55 29-12 0-252 167-345 240-132 105-380 353-488 490-312 393-519 837-615 1320-43 213-57 367-57 610 0 263 12 397 58 620 9 41 18 86 20 100 8 42 61 221 87 296 161 458 425 869 773 1204 505 486 1130 779 1826 854 168 19 466 19 633 1z" fill="#214c81"/>
  <path d="m44560 7321c-88-19-189-104-232-196-33-71-32-199 1-268 72-147 224-229 370-199 75 16 109 33 168 87 103 91 139 235 92 360-26 69-105 158-172 192-54 27-162 39-227 24z"/>
  <path d="m49830 7225v-55h100 100v-270c0-173 4-270 10-271 39-3 79-1 93 4 15 6 17 34 17 272v265h95 95v55 55h-255-255v-55z"/>
  <path d="m50452 6953 3-328h50 50l10 480 108-212c103-204 109-213 137-213 37 0 46 13 151 227 46 95 87 172 92 173 4 0 7-99 7-220 0-246-3-236 75-235h40v325 325h-85-85l-40-81c-22-44-64-131-93-192-29-62-55-112-57-112-3 0-39 71-80 158-42 86-84 173-93 192l-18 35-174 6 2-328z"/>
  <path d="m37287 7243c-2-5-3-793-2-1753l2-1745h263 263l2 3500-262 3c-144 1-264-1-266-5z"/>
  <path d="m23818 7230c-1-5-1-794 2-1752l5-1743h265 265v755c0 704 1 760 19 825 52 199 165 335 351 425 109 53 221 74 350 67 266-15 426-141 495-388 37-136 42-267 39-994l-4-690 263-3c231-2 263 0 269 13 3 9 1 411-4 893l-10 877-26 100c-41 156-111 287-208 389-188 199-395 281-699 280-178 0-277-22-426-94-163-79-292-195-376-338-17-30-28-40-33-31-5 6-6 328-4 713l4 701-267 3c-174 1-267-1-270-8z"/>
  <path d="m30713 7034c-3-8-1-25 5-37 20-43 41-94 92-222 47-119 66-163 91-220 15-34 441-1091 796-1977l336-838h312 313l260 653c289 723 875 2175 896 2222 8 17 38 89 66 160 51 128 72 179 92 222 6 12 8 29 5 37-6 14-43 16-304 16-164 0-303-4-309-8-14-10-27-39-157-362-101-253-198-488-577-1415-54-132-122-298-150-370-28-71-62-152-74-180-13-27-29-67-37-87-7-21-18-38-24-38-5 0-25 39-44 88-19 48-44 110-57 137-12 28-49 118-82 200-33 83-142 350-242 595-297 724-357 871-471 1154-60 149-115 273-122 278-6 4-146 8-310 8-261 0-298-2-304-16z"/>
  <path d="m45790 6655v-394l-157-3-158-3v-210-210l314-6 3-722c4-713 4-723 26-802 65-231 213-414 416-514 121-60 216-81 363-81 223 0 403 65 578 208 48 39 48 45 4 117-43 71-49 81-124 213-26 45-49 82-50 82-2 0-27-21-57-46-29-25-82-60-118-77-60-30-72-32-165-32-83 1-109 5-153 24-66 30-133 103-164 179l-23 57-5 690c-3 380-2 694 2 699 3 4 152 9 330 10l323 1v210 210l-327 3-328 2-2 393-3 392-262 3-263 2v-395z"/>
  <path d="m12723 7028c-5-7-21-40-35-73-180-416-1067-2430-1201-2725-14-30-34-76-46-102-11-27-31-69-42-95-12-27-30-68-41-93s-36-78-55-119c-20-43-31-77-26-82s141-8 302-7l293 3 39 90c22 50 44 101 50 115 5 14 60 142 122 285l113 260 828 3 827 2 26-57c14-32 76-175 138-318 61-143 125-287 141-320l29-60 290 4c160 2 292 5 294 7s-53 133-124 291c-309 695-1162 2635-1268 2883-22 52-44 101-50 108-7 9-80 12-302 12s-295-3-302-12zm362-793c52-121 73-167 103-235 11-25 52-119 92-210 81-184 101-229 130-295 11-25 29-65 40-90s30-66 41-92c24-55 47-106 79-178 12-27 28-63 36-79 29-60 66-56-581-56s-610-4-581 56c13 28 206 465 406 919 51 116 100 228 110 250 51 116 62 137 69 129 4-5 29-58 56-119z"/>
  <path d="m27861 6289c-316-28-585-158-816-394-227-231-326-507-326-903 1-249 43-447 134-627 110-218 308-411 546-530 102-51 178-76 341-111 14-3 77-9 140-14 211-15 440 13 627 75 174 58 378 182 492 299l44 45-109 117c-60 64-127 137-150 162l-41 46-69-62c-117-107-223-162-393-205-70-17-116-21-251-21-176-1-225 8-360 61-138 56-274 160-339 261-39 61-77 162-86 230l-7 52h987 987l-5 283c-6 349-18 414-111 612-52 109-111 189-210 282-167 159-382 272-606 317-63 13-304 39-320 35-3-1-48-6-99-10zm344-474c179-48 337-170 408-315 41-83 70-205 65-272l-3-43-719-3-719-2 7 76c16 179 111 329 281 442 105 69 187 103 310 128 88 17 286 11 370-11z"/>
  <path d="m35360 6289c-172-15-325-60-476-139-368-193-592-510-655-925-17-116-14-371 6-490 59-350 231-620 515-812 154-105 270-152 490-199 14-3 77-9 140-14 211-15 440 13 627 75 170 57 380 184 492 298l43 45-113 123c-63 67-130 141-150 163l-36 40-71-64c-142-130-283-192-501-221-339-46-679 84-834 319-50 74-84 163-89 232l-3 45 983 3 982 2v218c0 318-21 459-92 631-129 310-466 570-838 645-63 13-304 39-320 35-3-1-48-6-100-10zm345-473c149-39 303-145 377-258 62-94 97-209 98-316v-62l-717 2-718 3 3 65c2 74 28 163 67 233 88 157 306 301 520 343 88 17 287 11 370-10z"/>
  <path d="m42731 6289c-346-24-622-146-870-384-179-172-290-372-342-615-33-150-33-447-1-597 54-250 154-437 321-603 238-236 484-352 806-381 366-32 700 67 1004 299 70 53 171 146 171 158 0 5-40 53-89 107-49 53-114 126-146 162s-63 65-70 65-34-21-61-46c-111-105-259-193-394-236-64-20-96-23-220-23-121 0-158 4-223 23-274 79-481 282-567 557-31 100-39 291-16 405 26 128 90 253 179 347 157 165 337 253 554 269 216 16 453-66 646-221 37-30 71-55 75-55s35 33 67 73c157 190 245 301 245 307 0 14-126 118-210 175-189 126-394 196-614 210-50 4-100 7-111 9-11 1-71-1-134-5z"/>
  <path d="m16355 6281c-230-37-431-161-590-365-33-42-63-76-67-76-5 0-8 92-8 204v203l-256 8c-152 4-260 3-265-2s-10-703-11-1719l-1-1709 267-3 267-2-3 640c-2 366 1 640 6 640s41-30 80-67c252-239 522-347 826-330 135 8 226 27 342 73 122 49 210 102 324 197 245 204 389 463 440 787 19 126 19 381 0 501-47 287-139 472-331 664-188 188-365 286-620 341-81 18-326 27-400 15zm281-486c181-52 351-193 457-377 95-166 129-428 81-638-87-387-451-647-838-600-165 20-284 75-405 187-109 100-179 216-222 368-26 89-36 309-20 414 48 309 262 567 536 646 118 35 292 35 411 0z"/>
  <path d="m19165 6284c-217-31-420-94-575-177-67-36-244-153-259-171-8-9 19-52 101-167 60-85 114-158 118-163 5-4 51 18 103 49 210 125 390 183 592 192 396 17 603-156 593-495l-3-97-435-1c-400-1-445-3-553-22-285-52-481-159-592-322-60-89-91-177-105-302-12-102 0-249 26-340 43-145 156-298 290-394 266-190 699-226 1035-85 95 40 223 127 302 204 37 37 70 67 72 67s6-71 7-157l3-158 238-3c185-2 238 0 242 10 2 7 1 423-4 923-8 881-9 913-30 990-28 106-90 231-152 305-113 136-309 246-528 296-64 15-418 28-486 18zm673-1553c-5-180-17-227-79-320-121-182-385-283-658-253-275 31-416 145-429 348-6 100 15 168 74 233 53 59 109 91 216 122 68 21 101 23 463 28 215 3 396 4 403 2 11-3 13-36 10-160z"/>
  <path d="m22100 6284c-300-38-565-164-782-373-243-233-359-497-375-851-17-395 103-728 351-975 229-228 483-347 801-376 334-30 655 54 927 243 98 68 248 196 248 211 0 13-5 19-150 177-53 58-107 117-120 133-13 15-28 27-34 27s-40-26-76-58c-119-107-245-181-380-224-64-20-96-23-220-23-164 0-227 13-349 71-237 111-409 330-457 581-49 256 18 510 179 680 157 165 337 253 554 269 216 15 451-65 647-221 38-30 72-55 76-55 6 0 257 303 300 362 13 20 11 24-45 74-74 67-229 171-315 211-81 39-197 78-292 99-71 16-406 28-488 18z"/>
  <path d="m39570 6284c-14-2-59-9-100-16-165-25-387-118-525-220-97-72-241-218-304-308-103-146-181-335-212-510-7-41-13-147-13-235 0-178 12-265 56-405 62-195 160-354 312-506 150-149 268-227 453-298 155-60 270-79 488-80 199-1 261 7 412 49 272 77 534 269 694 509 74 110 108 176 147 286 55 156 67 236 67 445 0 148-4 209-19 275-57 260-171 465-365 653-187 181-376 282-646 344-58 13-394 26-445 17zm378-495c254-64 465-272 543-534 27-90 37-325 19-429-58-324-286-567-591-631-89-19-283-19-370-1-290 62-498 261-580 556-31 113-34 352-6 473 51 217 205 410 410 513 158 80 384 101 575 53z"/>
  <path d="m44377 6253c-4-3-7-570-7-1260 0-996 3-1253 13-1253 6 0 125-1 262-2l250-2v1260 1259l-256 3c-140 1-258-1-262-5z"/>
  <path d="m47300 6244c0-9 31-91 69-183 103-248 652-1616 743-1851 190-492 193-500 192-570-1-123-94-265-216-331-61-33-67-34-173-34-104 0-114 2-175 32-36 18-89 51-118 73-48 37-72 43-72 20 0-4-40-79-90-165-49-86-90-160-90-164 0-3-9-17-20-31s-20-33-20-42c0-38 212-173 333-212 112-36 147-41 287-41 152 0 210 12 330 67 168 76 335 249 419 432 12 27 85 203 161 390 147 363 376 922 732 1791 39 94 95 231 125 305s63 153 73 175 32 76 50 120c17 44 38 96 47 115 8 19 19 44 24 55 4 11 10 29 11 40 3 20-3 20-280 20h-283l-365-910c-201-500-371-916-378-922-9-10-92 186-380 905-202 504-373 920-380 924-6 4-134 8-283 8-245 0-273-2-273-16z"/>
 </g>
</svg>
